<?xml version="1.0" encoding="UTF-8"?><svg id="uuid-e577d0fd-5f6d-4d11-9f6c-4096998e4653" xmlns="http://www.w3.org/2000/svg" width="478.75" height="478.75" viewBox="0 0 478.75 478.75"><defs><style>.uuid-9d5f4e25-c605-4da5-ad41-7b86ee1b74cb{fill:#fff;stroke-width:0px;}</style></defs><path class="uuid-9d5f4e25-c605-4da5-ad41-7b86ee1b74cb" d="M29.1,180.3c4.18-8.65,11.95-12.77,20.18-16.68,53.99-25.62,107.89-51.43,161.82-77.18,20.26-9.67,40.48-9.69,60.69.18,53.95,26.34,107.91,52.66,161.86,79,3.68,1.8,7.28,3.74,10.21,6.72,8.31,8.46,7.6,19.74-1.72,27.1-2.81,2.22-5.96,3.83-9.14,5.4-16.99,8.34-33.97,16.7-51.01,24.95-2.25,1.09-3.08,2.34-3.07,4.92.11,30.93,0,61.87.15,92.8.02,4.42-1.29,7.85-4.13,11.12-25.86,29.79-58.15,48.74-96.68,56.72-37.57,7.79-74.39,4.89-110.05-9.7-26-10.64-48.1-26.72-66.25-48.21-2.15-2.55-3.09-5.22-3.08-8.57.09-31.21-.02-62.42.15-93.62.02-3.44-1.18-5.03-4.09-6.37-7.02-3.22-13.91-6.71-21.47-10.4,0,1.51,0,2.53,0,3.54,0,20.53.05,41.06-.06,61.59-.01,2.51.74,3.74,2.99,5,16.03,8.92,16.13,31.47.17,40.64-2.27,1.31-2.24,2.3-1.56,4.42,6.92,21.75,13.72,43.54,20.66,65.62h-60.82c2.88-9.21,5.72-18.36,8.6-27.49,3.96-12.58,7.91-25.17,11.98-37.71.76-2.34.73-3.59-1.78-5.11-15.82-9.58-15.3-31.6.92-40.64,2.04-1.14,2.53-2.3,2.52-4.43-.07-23.54-.09-47.08.02-70.63.01-2.43-.7-3.74-2.96-4.47-1.28-.41-2.44-1.19-3.69-1.74-8.82-3.87-17.1-8.37-21.34-17.75v-9.03ZM93.08,210.15c1.5.85,2.38,1.42,3.32,1.87,40.99,19.64,81.92,39.4,123.01,58.84,14.46,6.84,29.35,6.79,43.84-.21,37.44-18.09,74.8-36.35,112.18-54.58,17.13-8.35,34.22-16.77,51.3-25.23,2.76-1.37,6.91-2.48,6.96-5.62.05-3.3-4.26-4.13-6.99-5.46-54.16-26.5-108.33-52.96-162.54-79.36-15.05-7.33-30.37-7.31-45.4-.17-39.33,18.7-78.55,37.64-117.81,56.5-17.05,8.19-34.11,16.36-51.13,24.6-1.92.93-4.74,1.74-4.76,4.03-.02,2.47,2.84,3.38,4.86,4.39,4.51,2.24,9.15,4.21,13.62,6.52,2.3,1.19,4.56,1.61,7.08,1.3,12.61-1.52,25.22-3,37.83-4.49,17.36-2.06,34.71-4.11,52.07-6.17,17.63-2.09,35.25-4.19,52.88-6.25,8.41-.98,16.82-1.93,25.24-2.8,3.73-.39,6.33,1.41,7.7,4.81,2.08,5.16-1.16,9.6-7.98,10.47-12.6,1.6-25.23,2.92-37.84,4.39-17.36,2.02-34.72,4.05-52.08,6.09-18.17,2.14-36.34,4.29-55.35,6.53ZM115.28,238.49c-.07.52-.2,1.04-.2,1.56-.01,28.73.01,57.46-.06,86.18,0,2.16.93,3.59,2.24,5.03,15.18,16.69,33.01,29.74,53.69,38.8,33.01,14.47,67.25,17.69,102.47,10.68,34.82-6.92,64.17-23.63,88-49.98,1.48-1.64,2.03-3.28,2.02-5.46-.07-22.02-.04-44.05-.04-66.07,0-6.81,0-13.61,0-20.45-1.73-.21-2.77.8-3.94,1.37-29.58,14.47-59.13,28.99-88.72,43.43-19.63,9.58-39.45,9.55-59.11.28-30.76-14.51-61.4-29.29-92.1-43.93-1.31-.63-2.5-1.7-4.26-1.45Z"/></svg>