<svg id="a" xmlns="http://www.w3.org/2000/svg" width={180.37} height={180.37} viewBox="0 0 180.37 180.37" >
  <path className="b" d="M61.46,101.71c1.68,7.27,7.06,10.6,13.31,12.73,10.68,3.64,21.44,3.55,32.04-.42,5.83-2.19,10.69-5.58,12.21-12.46,9.9.94,18.53,4.54,25.86,10.94,12.35,10.78,17.87,24.44,16.31,40.8-.92,9.62-6.11,16.07-15.45,18.39-5.79,1.44-11.88,2.34-17.84,2.4-25.14.26-50.28.26-75.42,0-5.96-.06-12.04-.99-17.83-2.43-9.35-2.33-14.33-8.84-15.43-18.42-2.93-25.58,16.98-50.15,42.24-51.53Z"/>
  <path className="b" d="M54.37,44.38c.76-14,7.04-24.43,19.71-31.61.97,5.31,1.86,10.17,2.74,15.04.35,1.92.57,4.24,3.23,3.84,2.89-.43,2.41-2.74,2.02-4.85-.89-4.79-1.74-9.58-2.54-14.39-.63-3.81.88-5.93,4.73-6.16,3.96-.23,7.95-.22,11.91,0,3.86.21,5.41,2.33,4.78,6.12-.82,4.93-1.72,9.85-2.63,14.76-.38,2.03-.53,4.29,2.05,4.39,1.02.04,2.75-1.98,3.08-3.33,1.2-4.93,1.94-9.97,2.95-15.45,12.58,7.22,18.97,17.58,19.66,31.57,1.22.29,2.71.2,3.31.89,1.32,1.52,3.11,3.49,2.99,5.15-.12,1.65-2.18,3.37-3.75,4.59-.85.66-2.47.41-3.74.41-23.07.02-46.14.02-69.21.01-1.02,0-2.06.01-3.06-.16-2.89-.5-4.65-2.2-4.7-5.19-.05-2.79,1.51-4.52,4.21-5.2.68-.19,1.42-.28,2.26-.43Z"/>
  <path className="b" d="M54.61,60.52h3.84c1.67,5.87,2.64,11.79,5.04,17.05,2.4,5.27,5.57,10.5,9.54,14.67,10.04,10.56,24.11,10.35,34.48.13,7.92-7.8,11.57-17.66,13.37-28.37.19-1.11.37-2.23.57-3.45.8-.08,1.42-.19,2.03-.19s1.22.1,2.36.22c-2.53,17.13-7.52,32.56-23.31,41.8-8.26,4.83-17.1,4.65-25.27-.36-15.27-9.38-20.21-24.55-22.65-41.5Z"/>
</svg>