<?xml version="1.0" encoding="UTF-8"?><svg id="a" xmlns="http://www.w3.org/2000/svg" width="433.02" height="1920" viewBox="0 0 433.02 1920"><defs><style>.b{stroke-width:0px;}</style></defs><path class="b" d="M168.57,244.99v2.73c0,1.91-1.21,3.12-3.12,3.12h-32.04v-70.43h32.12c1.8,0,3.04,1.25,3.04,3.05v2.82h.7c10.44,0,20.88,0,31.32.02.63,0,1.31.16,1.87.44,11.86,5.9,23.72,11.83,35.57,17.76,3.87,1.94,6.35,5.02,7.4,9.23.02.09.05.19.08.28,0,.03.04.05.09.12.18-.06.38-.13.57-.2,14.8-5.38,29.59-10.79,44.4-16.13,8.25-2.98,17.03,2.08,18.7,10.7,1.26,6.52-2.28,13.04-8.52,15.64-7.45,3.1-14.91,6.17-22.37,9.25-18.53,7.66-37.06,15.32-55.59,22.98-.79.33-1.57.37-2.38.14-13.34-3.8-26.68-7.6-40.02-11.4-.25-.07-.51-.13-.77-.13-3.52,0-7.05,0-10.57,0-.14,0-.27,0-.48.02ZM168.62,239.11h.59c3.64,0,7.27,0,10.91,0,.42,0,.85.06,1.25.17,13.14,3.73,26.28,7.47,39.42,11.2.28.08.65.06.93-.05,9.24-3.8,18.48-7.62,27.71-11.44,12.38-5.12,24.77-10.24,37.15-15.36,4.08-1.69,8.19-3.33,12.24-5.09,3.6-1.56,5.46-5.47,4.61-9.36-.81-3.68-4.24-6.39-8.06-6.39-1.31,0-2.53.4-3.75.84-15.27,5.56-30.55,11.11-45.83,16.66-.33.12-.49.29-.59.62-2.43,7.8-10.93,11.79-18.48,8.65-8.82-3.66-17.64-7.35-26.46-11.02-.16-.07-.32-.15-.51-.24.76-1.81,1.49-3.58,2.25-5.39.2.07.35.12.5.18,4.65,1.94,9.3,3.88,13.95,5.81,4.23,1.76,8.44,3.56,12.69,5.27,5.17,2.08,10.81-1.74,10.77-7.31-.02-3.22-1.55-5.63-4.42-7.07-11.62-5.84-23.27-11.65-34.91-17.46-.26-.13-.59-.2-.88-.2-10.18,0-20.35,0-30.53,0h-.55c0,15.68,0,31.3,0,46.98Z"/><path class="b" d="M253.67,192.12c-24.3-.02-44.11-19.87-43.97-44.29.14-24.25,20.02-44.03,44.54-43.76,24.15.27,43.76,20.12,43.5,44.5-.25,24.08-19.92,43.58-44.07,43.55ZM253.7,109.95c-21.06.06-38.19,17.22-38.13,38.19.06,21.04,17.16,38.12,38.16,38.11,21.02,0,38.22-17.21,38.15-38.17-.07-21.07-17.21-38.19-38.18-38.13Z"/><path class="b" d="M256.67,168.71v.55c0,1.6-.01,3.2.01,4.8,0,.35-.09.49-.46.48-1.66-.02-3.33-.02-4.99,0-.39,0-.46-.15-.45-.49,0-1.58,0-3.16,0-4.75v-.57c-.76-.09-1.48-.15-2.18-.27-5.24-.92-9.35-5.63-9.55-10.93q-.02-.63.59-.63h5.26c.04.28.07.52.11.76.4,2.85,2.66,4.98,5.53,5.08,2.13.08,4.27.08,6.41,0,3.16-.12,5.6-2.74,5.58-5.87-.02-3.13-2.5-5.7-5.66-5.8-1.99-.06-3.98-.02-5.97-.02-6.95,0-12.29-5.71-11.83-12.65.39-5.83,5.33-10.63,11.18-10.85.16-.01.32-.02.52-.03,0-.2.02-.37.02-.55,0-1.6,0-3.2,0-4.8,0-.37.09-.51.49-.51,1.63.02,3.26.02,4.89,0,.4,0,.53.1.53.52-.02,1.58-.01,3.16-.01,4.75v.55c.74.09,1.46.14,2.16.27,5.26.93,9.35,5.6,9.58,10.92q.03.65-.61.65h-4.7c-.18,0-.35,0-.52-.02-.1-.54-.14-1.05-.28-1.52-.75-2.43-2.38-4.01-4.91-4.22-2.43-.2-4.9-.2-7.33,0-3.06.25-5.27,3-5.12,6.01.15,3.07,2.58,5.49,5.68,5.58,2.04.06,4.08.02,6.12.02,6.08,0,11.23,4.8,11.66,10.86.44,6.16-3.93,11.65-9.98,12.52-.58.07-1.13.1-1.77.16Z"/><path class="b" d="M227.31,148.1c0,.83,0,1.66,0,2.49,0,.33-.08.46-.43.46-1.68-.02-3.36,0-5.04,0-.36,0-.44-.13-.43-.46,0-1.66.02-3.33,0-4.99,0-.38.14-.46.49-.46,1.65,0,3.29.02,4.94,0,.41,0,.49.15.48.51-.03.82-.02,1.63-.02,2.45Z"/><path class="b" d="M286.03,148.13c0,.82-.01,1.63.01,2.45.01.35-.08.49-.46.48-1.66-.02-3.33-.02-4.99,0-.38,0-.46-.14-.46-.49.01-1.65.01-3.29,0-4.94,0-.35.08-.49.46-.49,1.66.02,3.33.02,4.99,0,.38,0,.47.14.46.49-.02.83-.01,1.66-.01,2.5Z"/><path class="b" d="M187.44,450.99c-.99-.53-2-1.02-3.05-1.56,12.39-8.27,12.51-24.43,3.93-33.28-8.37-8.64-22.2-8.77-30.8-.36-8.83,8.64-9.07,25.38,3.56,33.66-11.06,5.05-17.51,13.55-19.33,25.56v15.75c.92,1.25,2.03,1.6,3.42,1.6,10.24-.02,20.47-.01,30.71-.01,1.78,0,3.57.01,5.35-.02,1.83-.02,3.01-1.12,3-2.75,0-1.55-1.19-2.65-2.92-2.71-.38-.01-.76-.01-1.15-.01h-32.98c0-3.2-.08-6.25,0-9.3.33-10.42,6.77-19.52,16.53-23.19,7.23-2.72,14.33-2.16,21.18,1.41,1.8.94,3.38.56,4.15-.96.75-1.48.18-2.87-1.61-3.83ZM173.59,447.25c-9.08.36-16.87-6.82-16.95-15.93-.08-8.98,6.94-16.18,16.01-16.34,8.62-.15,16.04,7.02,16.19,15.66.17,8.87-6.79,16.28-15.25,16.61Z"/><path class="b" d="M280.4,491.39c-1.11.32-2.21.92-3.32.92-11.59.07-23.19.04-34.78.04-.38,0-.77.01-1.15-.02-1.63-.11-2.76-1.27-2.73-2.78.03-1.48,1.1-2.62,2.7-2.65,3.27-.06,6.54-.04,9.81-.04,7.64,0,15.29.01,22.93.02h1.4c.09-.23.2-.38.2-.53-.07-3.78.12-7.59-.28-11.33-1.3-12.37-12.31-22.14-24.74-22.29-4.44-.05-8.58.94-12.51,2.96-.34.17-.68.36-1.04.48-1.37.44-2.72-.13-3.33-1.37-.6-1.23-.22-2.69,1.03-3.44,1.16-.7,2.39-1.26,3.7-1.94-6.72-4.79-10.27-11.17-9.92-19.45.25-5.74,2.57-10.63,6.74-14.54,8.82-8.27,22.61-7.74,30.66,1.07,8.68,9.51,7.54,25.09-4.23,32.93.4.22.74.43,1.1.6,9.15,4.37,14.99,11.46,17.46,21.31.06.24.19.46.28.69.02,6.44.02,12.9.02,19.36ZM266.02,431.03c-.04-8.83-7.3-16.09-16.07-16.07-9,.03-16.2,7.24-16.17,16.22.02,8.99,7.29,16.07,16.46,16.04,8.66-.03,15.82-7.37,15.78-16.19Z"/><path class="b" d="M214.38,387.07c1.85.57,3.78.98,5.55,1.75,8.85,3.84,14.01,13,12.78,22.51-1.24,9.66-8.7,17.21-18.41,18.65-9.32,1.38-18.59-3.72-22.61-12.43-5.86-12.68,2-27.76,15.75-30.22.28-.05.55-.18.82-.27,2.05,0,4.09,0,6.12,0ZM227.42,408.61c.03-8.73-7.14-16.11-15.7-16.15-9.2-.05-16.44,6.97-16.5,15.98-.06,9.08,7.09,16.24,16.21,16.26,8.81,0,15.96-7.19,15.99-16.09Z"/><path class="b" d="M223.2,482.81c2.56,1.65,5.25,3.06,7.57,4.93,7.55,6.1,11.32,14.16,11.57,23.84.09,3.7.02,7.4,0,11.09,0,2.19-1,3.18-3.22,3.18-14.61.01-29.22.01-43.83.01-3.91,0-7.81.01-11.72,0-2.24-.01-3.25-1.03-3.25-3.29,0-3.61-.09-7.23.03-10.84.43-12.95,6.52-22.3,18.08-28.1.37-.19.74-.38,1.31-.67-7.23-5.18-10.69-12.07-9.79-20.86.59-5.71,3.23-10.43,7.67-14.07,9.02-7.38,22.27-6.29,29.79,2.17,8.02,9.04,7.65,24.66-4.21,32.61ZM236.85,520.36v-8.57c0-14.89-12.48-25.76-25.79-25.5-11.17.22-21.1,7.47-24.19,18.23-.63,2.18-.91,4.5-1.04,6.77-.17,2.99-.04,6-.04,9.07h51.06ZM211.41,480.72c9-.04,16.05-7.14,16.03-16.14-.02-8.88-7.27-16.07-16.19-16.05-8.89.02-16.09,7.3-16.02,16.21.06,9,7.18,16.03,16.18,15.98Z"/><path class="b" d="M214.73,1412.79c1.93-1.29,4.04-2.64,6.07-4.11.37-.27.58-1.01.56-1.52-.16-7.05,1.58-13.61,5.35-19.53,3.48-5.47,8.9-8.34,14.93-10.09,4.15-1.2,8.39-2.1,12.61-3.09,2.46-.57,4.85-1.21,6.99-2.71,2.22-1.56,5.3.09,5.31,2.74.01,6.54-.48,13.02-2.39,19.33-4.41,14.56-15.79,22.49-31.03,21.45-2.54-.17-5.04-.82-7.57-1.22-.35-.06-.77-.01-1.08.13-3.9,1.82-6.82,4.5-7.59,8.97-.04.23-.07.47-.05.71.53,5.91.11,11.79-.56,17.67-.02.14.03.28.07.59,1.52.13,3.05.25,4.59.39,7.01.62,13.81,2.18,20.4,4.61,1.12.41,1.8.18,2.63-.58,3.53-3.21,7.28-6.14,11.56-8.3,2.53-1.28,5.15-2.36,8.03-2.2,1.53.09,3.02.71,4.54,1.01.57.11,1.3.17,1.75-.1,2.52-1.5,5.16-2.64,8.09-3.06,2.38-.34,4.63-.12,6.75,1.13.34.2,1.07.04,1.45-.21,2.84-1.91,5.8-3.47,9.28-3.77,6.44-.55,11.16,4.1,10.68,10.56-.54,7.23-3.63,13.44-7.81,19.18-5.43,7.45-12.23,13.54-19.35,19.3-10.26,8.3-20.9,16.07-32.06,23.12-1.21.76-2.42,1.54-3.52,2.44-4.13,3.37-8.83,4.12-13.97,3.42-9-1.23-18.01-2.38-27.03-3.47-6.28-.76-12.58-1.38-18.88-2-.48-.05-1.09.26-1.5.58-7.66,5.88-15.31,11.79-22.94,17.71-1.22.95-2.49,1.37-3.98.76-2.51-1.03-2.89-3.59-.76-5.25,6.17-4.79,12.34-9.55,18.51-14.34,1.65-1.28,3.26-2.62,4.93-3.89,2.06-1.56,4.41-2.22,6.98-1.96,10.51,1.06,21.02,2.13,31.53,3.23,6.15.64,12.29,1.39,18.45,2,.72.07,1.57-.34,2.23-.75,15.29-9.58,30.52-19.26,43.88-31.52,6.85-6.29,12.8-13.32,16.84-21.77.99-2.07,1.7-4.35,2.09-6.62.52-3.1-1.01-4.38-4.09-3.74-2.71.57-5.14,1.87-7.16,3.7-7.19,6.51-14.31,13.12-21.42,19.72-.33.31-.59.89-.58,1.34.07,5.08-2.22,8.96-6.06,12.04-4.29,3.44-9.34,5.3-14.58,6.61-12.46,3.13-25.17,3.95-37.96,3.91-1,0-2-.01-3-.08-2.04-.15-3.25-1.49-3.18-3.45.07-1.91,1.3-3.02,3.4-2.98,10.2.18,20.36-.39,30.48-1.68,5.4-.69,10.71-1.75,15.71-4.02,2.81-1.27,5.42-2.87,7.09-5.55,1.07-1.71,2.2-3.49,1.02-5.69-.38-.7-.23-1.92-.74-2.26-1.16-.75-2.54-1.36-3.9-1.56-4.55-.7-9.05.06-13.4,1.29-3.1.87-6.09,2.17-9.05,3.47-3.86,1.7-7.64,1.73-11.47.04-8.28-3.66-16.95-5.97-25.83-7.51-5.1-.89-10.24-1.12-15.3.23-7.61,2.02-13.53,6.69-17.46,13.23-4.02,6.68-9.87,11.08-15.9,15.48-5.11,3.73-10.26,7.41-15.4,11.11-1.83,1.32-3.22,1.28-4.37-.16-1.28-1.61-1.08-3.78.59-5.06,2.6-2,5.26-3.93,7.91-5.88,5.56-4.09,11.13-8.15,16.66-12.28.81-.61,1.54-1.42,2.08-2.28,2.51-4,5.08-7.93,8.57-11.19,3.27-3.06,6.94-5.51,11.14-7.06,5.25-1.95,10.54-3.82,15.86-5.59,6.17-2.05,12.54-3.15,19.03-3.59.66-.05,1.33.05,1.43-.94.78-7.35,1.5-14.7.05-22.04-.54-2.73-1.44-5.33-3.53-7.34-.83-.8-1.64-1.03-2.91-.79-11.68,2.22-22.4.57-31.05-8.4-3.56-3.7-5.3-8.41-6.69-13.25-1.72-6.01-2.11-12.17-2.1-18.38,0-2.48,3.13-4.22,5.14-2.73,4.03,3,8.74,3.83,13.46,4.74,4.21.8,8.43,1.49,12.3,3.5,5.77,2.99,9.76,7.48,11.85,13.65,1.43,4.21,2.69,8.49,2.35,12.97-.13,1.73.4,2.65,1.57,3.81,1.68,1.68,2.99,3.8,4.43,5.67ZM259.95,1379.73c-1.51.44-2.78.85-4.06,1.16-4.35,1.04-8.73,1.95-13.05,3.1-7.22,1.92-11.8,6.62-13.5,13.86-.7,2.98-.74,6.12-1.1,9.18-.14,1.22.44,1.56,1.56,1.57,5.12.06,10.18-.32,15.12-1.7,4.01-1.12,7.21-3.43,9.43-6.96,3.85-6.1,5.11-12.93,5.6-20.21ZM170.18,1376.64c.57,7.61,1.87,14.9,6.4,21.21,1.46,2.04,3.39,3.62,5.69,4.65,5.88,2.64,12.15,2.88,18.46,2.82.96-.01,1.22-.51,1.16-1.36-.18-2.37-.16-4.77-.56-7.1-1.42-8.23-5.85-13.96-14.14-16.14-5.56-1.47-11.18-2.69-17.01-4.08ZM202.07,1449.55c8.29,1.7,16.24,4.38,24.01,7.65.37.16.93.08,1.34-.06,2.9-1.05,5.8-2.12,8.68-3.25.52-.21.92-.74,1.58-1.3-11.9-3.97-23.62-5.05-35.61-3.04ZM280.09,1440.05c-3.99-.45-16.34,8.9-18.79,13.86.72.6,1.44,1.21,2.28,1.92,5.46-5.21,10.87-10.39,16.51-15.78ZM249.01,1451.13c1.54,0,3.09.06,4.63-.03.58-.03,1.27-.29,1.67-.69,1.93-1.96,3.77-4,5.66-6,.56-.6,1.17-1.15,1.75-1.72-.08-.1-.17-.2-.25-.3-5.43,1.35-9.43,5.01-13.46,8.74Z"/><path class="b" d="M150.47,1747.83c0-7.11-.02-14.23,0-21.34.02-5.56,1.64-7.32,7.29-7.43,8.37-.16,16.6-1.17,24.67-3.39,11.5-3.16,21.59-8.89,30.33-16.99,4.75-4.39,6.95-4.41,11.71.02,12.52,11.66,27.49,17.84,44.36,19.65,3.88.42,7.79.46,11.68.74,4.27.31,6.21,2.21,6.21,6.4.01,14.4.36,28.82-.25,43.19-.73,17.32-4.5,34.01-13.37,49.2-9.58,16.41-23.71,27.61-40.79,35.37-3.63,1.65-7.3,3.21-11.04,4.57-1.38.5-3.19.76-4.51.3-15.36-5.43-29.53-12.89-41.05-24.75-12.11-12.46-18.99-27.56-22.47-44.37-2.82-13.59-3.3-27.36-2.78-41.17ZM275.12,1730.34c-21.14-.84-40.27-7.25-56.5-21.49-16.21,14.16-35.32,20.62-56.59,21.48-.1.91-.26,1.58-.25,2.26.27,14.48.12,28.98.98,43.43.74,12.38,4.15,24.24,10.33,35.14,9.37,16.55,23.88,26.88,41.12,33.94,2.98,1.22,5.49,1.28,8.59.04,30.29-12.16,47.5-34.23,51.42-66.72,1.88-15.58,1.44-31.18,1.18-46.79,0-.35-.14-.68-.28-1.29Z"/><path class="b" d="M210.66,1784.75c9.06-9.07,17.83-17.84,26.6-26.62,1.71-1.71,3.52-3.07,6.17-2.46,3.75.87,5.61,4.68,3.8,8.04-.57,1.05-1.4,1.98-2.24,2.83-9.62,9.65-19.25,19.29-28.89,28.91-3.91,3.91-6.8,3.93-10.66.08-4.55-4.53-9.2-8.97-13.56-13.69-1.3-1.4-2.48-3.6-2.45-5.4.09-4.43,5.19-6.56,8.85-3.97.84.6,1.59,1.34,2.32,2.08,3.3,3.32,6.58,6.66,10.06,10.2Z"/><path class="b" d="M180.41,1127.36c1.68,7.27,7.06,10.6,13.31,12.73,10.68,3.64,21.44,3.55,32.04-.42,5.83-2.19,10.69-5.58,12.21-12.46,9.9.94,18.53,4.54,25.86,10.94,12.35,10.78,17.87,24.44,16.31,40.8-.92,9.62-6.11,16.07-15.45,18.39-5.79,1.44-11.88,2.34-17.84,2.4-25.14.26-50.28.26-75.42,0-5.96-.06-12.04-.99-17.83-2.43-9.35-2.33-14.33-8.84-15.43-18.42-2.93-25.58,16.98-50.15,42.24-51.53Z"/><path class="b" d="M173.32,1070.03c.76-14,7.04-24.43,19.71-31.61.97,5.31,1.86,10.17,2.74,15.04.35,1.92.57,4.24,3.23,3.84,2.89-.43,2.41-2.74,2.02-4.85-.89-4.79-1.74-9.58-2.54-14.39-.63-3.81.88-5.93,4.73-6.16,3.96-.23,7.95-.22,11.91,0,3.86.21,5.41,2.33,4.78,6.12-.82,4.93-1.72,9.85-2.63,14.76-.38,2.03-.53,4.29,2.05,4.39,1.02.04,2.75-1.98,3.08-3.33,1.2-4.93,1.94-9.97,2.95-15.45,12.58,7.22,18.97,17.58,19.66,31.57,1.22.29,2.71.2,3.31.89,1.32,1.52,3.11,3.49,2.99,5.15-.12,1.65-2.18,3.37-3.75,4.59-.85.66-2.47.41-3.74.41-23.07.02-46.14.02-69.21.01-1.02,0-2.06.01-3.06-.16-2.89-.5-4.65-2.2-4.7-5.19-.05-2.79,1.51-4.52,4.21-5.2.68-.19,1.42-.28,2.26-.43Z"/><path class="b" d="M173.56,1086.17h3.84c1.67,5.87,2.64,11.79,5.04,17.05,2.4,5.27,5.57,10.5,9.54,14.67,10.04,10.56,24.11,10.35,34.48.13,7.92-7.8,11.57-17.66,13.37-28.37.19-1.11.37-2.23.57-3.45.8-.08,1.42-.19,2.03-.19s1.22.1,2.36.22c-2.53,17.13-7.52,32.56-23.31,41.8-8.26,4.83-17.1,4.65-25.27-.36-15.27-9.38-20.21-24.55-22.65-41.5Z"/><path class="b" d="M137.96,846.89h8.97v-18.42h27.57v-27.62h-8.85v-27.32h8.92c3.79-20.59,15.85-32.94,36.56-36.82v-18.09h27.21v9.1h-18.09v9.01c20.47,3.83,32.53,16.07,36.4,36.71h8.96v27.36h-8.84v27.62h27.43v18.33h9.07v27.24h-155.3c0-8.9,0-17.85,0-27.1ZM183.53,856.05h-36.36v8.74h136.93v-8.84h-36.31v-9.16h27.23v-8.96h-118.81v9.07h27.33c0,3.09,0,5.9,0,9.15ZM184.19,773.27h62.89c-2.31-15.75-15.84-27.51-31.46-27.5-15.62,0-29.27,11.89-31.43,27.5ZM174.8,791.66h81.61v-8.76h-81.61v8.76ZM192.61,828.36v-27.36h-8.8v27.36h8.8ZM202.19,800.93v27.33h8.75v-27.33h-8.75ZM220.31,800.94v27.33h8.75v-27.33h-8.75ZM238.67,800.93v27.33h8.75v-27.33h-8.75Z"/></svg>