<svg id="a" xmlns="http://www.w3.org/2000/svg" width="180.37" height="180.37" viewBox="0 0 180.37 180.37">
  <path className="b" d="M66.55,84.71c-.99-.53-2-1.02-3.05-1.56,12.39-8.27,12.51-24.43,3.93-33.28-8.37-8.64-22.2-8.77-30.8-.36-8.83,8.64-9.07,25.38,3.56,33.66-11.06,5.05-17.51,13.55-19.33,25.56v15.75c.92,1.25,2.03,1.6,3.42,1.6,10.24-.02,20.47-.01,30.71-.01,1.78,0,3.57.01,5.35-.02,1.83-.02,3.01-1.12,3-2.75,0-1.55-1.19-2.65-2.92-2.71-.38-.01-.76-.01-1.15-.01H26.29c0-3.2-.08-6.25,0-9.3.33-10.42,6.77-19.52,16.53-23.19,7.23-2.72,14.33-2.16,21.18,1.41,1.8.94,3.38.56,4.15-.96.75-1.48.18-2.87-1.61-3.83ZM52.7,80.97c-9.08.36-16.87-6.82-16.95-15.93-.08-8.98,6.94-16.18,16.01-16.34,8.62-.15,16.04,7.02,16.19,15.66.17,8.87-6.79,16.28-15.25,16.61Z"/>
  <path className="b" d="M159.51,125.11c-1.11.32-2.21.92-3.32.92-11.59.07-23.19.04-34.78.04-.38,0-.77.01-1.15-.02-1.63-.11-2.76-1.27-2.73-2.78.03-1.48,1.1-2.62,2.7-2.65,3.27-.06,6.54-.04,9.81-.04,7.64,0,15.29.01,22.93.02h1.4c.09-.23.2-.38.2-.53-.07-3.78.12-7.59-.28-11.33-1.3-12.37-12.31-22.14-24.74-22.29-4.44-.05-8.58.94-12.51,2.96-.34.17-.68.36-1.04.48-1.37.44-2.72-.13-3.33-1.37-.6-1.23-.22-2.69,1.03-3.44,1.16-.7,2.39-1.26,3.7-1.94-6.72-4.79-10.27-11.17-9.92-19.45.25-5.74,2.57-10.63,6.74-14.54,8.82-8.27,22.61-7.74,30.66,1.07,8.68,9.51,7.54,25.09-4.23,32.93.4.22.74.43,1.1.6,9.15,4.37,14.99,11.46,17.46,21.31.06.24.19.46.28.69.02,6.44.02,12.9.02,19.36ZM145.13,64.75c-.04-8.83-7.3-16.09-16.07-16.07-9,.03-16.2,7.24-16.17,16.22.02,8.99,7.29,16.07,16.46,16.04,8.66-.03,15.82-7.37,15.78-16.19Z"/>
  <path className="b" d="M93.49,20.79c1.85.57,3.78.98,5.55,1.75,8.85,3.84,14.01,13,12.78,22.51-1.24,9.66-8.7,17.21-18.41,18.65-9.32,1.38-18.59-3.72-22.61-12.43-5.86-12.68,2-27.76,15.75-30.22.28-.05.55-.18.82-.27,2.05,0,4.09,0,6.12,0ZM106.53,42.33c.03-8.73-7.14-16.11-15.7-16.15-9.2-.05-16.44,6.97-16.5,15.98-.06,9.08,7.09,16.24,16.21,16.26,8.81,0,15.96-7.19,15.99-16.09Z"/>
  <path className="b" d="M102.31,116.53c2.56,1.65,5.25,3.06,7.57,4.93,7.55,6.1,11.32,14.16,11.57,23.84.09,3.7.02,7.4,0,11.09,0,2.19-1,3.18-3.22,3.18-14.61.01-29.22.01-43.83.01-3.91,0-7.81.01-11.72,0-2.24-.01-3.25-1.03-3.25-3.29,0-3.61-.09-7.23.03-10.84.43-12.95,6.52-22.3,18.08-28.1.37-.19.74-.38,1.31-.67-7.23-5.18-10.69-12.07-9.79-20.86.59-5.71,3.23-10.43,7.67-14.07,9.02-7.38,22.27-6.29,29.79,2.17,8.02,9.04,7.65,24.66-4.21,32.61ZM115.96,154.08v-8.57c0-14.89-12.48-25.76-25.79-25.5-11.17.22-21.1,7.47-24.19,18.23-.63,2.18-.91,4.5-1.04,6.77-.17,2.99-.04,6-.04,9.07h51.06ZM90.52,114.44c9-.04,16.05-7.14,16.03-16.14-.02-8.88-7.27-16.07-16.19-16.05-8.89.02-16.09,7.3-16.02,16.21.06,9,7.18,16.03,16.18,15.98Z"/>
</svg>