<svg id="a" xmlns="http://www.w3.org/2000/svg" width={180.37} height={180.37} viewBox="0 0 180.37 180.37">
  <path className="b" d="M88.97,57.57c1.93-1.29,4.04-2.64,6.07-4.11.37-.27.58-1.01.56-1.52-.16-7.05,1.58-13.61,5.35-19.53,3.48-5.47,8.9-8.34,14.93-10.09,4.15-1.2,8.39-2.1,12.61-3.09,2.46-.57,4.85-1.21,6.99-2.71,2.22-1.56,5.3.09,5.31,2.74.01,6.54-.48,13.02-2.39,19.33-4.41,14.56-15.79,22.49-31.03,21.45-2.54-.17-5.04-.82-7.57-1.22-.35-.06-.77-.01-1.08.13-3.9,1.82-6.82,4.5-7.59,8.97-.04.23-.07.47-.05.71.53,5.91.11,11.79-.56,17.67-.02.14.03.28.07.59,1.52.13,3.05.25,4.59.39,7.01.62,13.81,2.18,20.4,4.61,1.12.41,1.8.18,2.63-.58,3.53-3.21,7.28-6.14,11.56-8.3,2.53-1.28,5.15-2.36,8.03-2.2,1.53.09,3.02.71,4.54,1.01.57.11,1.3.17,1.75-.1,2.52-1.5,5.16-2.64,8.09-3.06,2.38-.34,4.63-.12,6.75,1.13.34.2,1.07.04,1.45-.21,2.84-1.91,5.8-3.47,9.28-3.77,6.44-.55,11.16,4.1,10.68,10.56-.54,7.23-3.63,13.44-7.81,19.18-5.43,7.45-12.23,13.54-19.35,19.3-10.26,8.3-20.9,16.07-32.06,23.12-1.21.76-2.42,1.54-3.52,2.44-4.13,3.37-8.83,4.12-13.97,3.42-9-1.23-18.01-2.38-27.03-3.47-6.28-.76-12.58-1.38-18.88-2-.48-.05-1.09.26-1.5.58-7.66,5.88-15.31,11.79-22.94,17.71-1.22.95-2.49,1.37-3.98.76-2.51-1.03-2.89-3.59-.76-5.25,6.17-4.79,12.34-9.55,18.51-14.34,1.65-1.28,3.26-2.62,4.93-3.89,2.06-1.56,4.41-2.22,6.98-1.96,10.51,1.06,21.02,2.13,31.53,3.23,6.15.64,12.29,1.39,18.45,2,.72.07,1.57-.34,2.23-.75,15.29-9.58,30.52-19.26,43.88-31.52,6.85-6.29,12.8-13.32,16.84-21.77.99-2.07,1.7-4.35,2.09-6.62.52-3.1-1.01-4.38-4.09-3.74-2.71.57-5.14,1.87-7.16,3.7-7.19,6.51-14.31,13.12-21.42,19.72-.33.31-.59.89-.58,1.34.07,5.08-2.22,8.96-6.06,12.04-4.29,3.44-9.34,5.3-14.58,6.61-12.46,3.13-25.17,3.95-37.96,3.91-1,0-2-.01-3-.08-2.04-.15-3.25-1.49-3.18-3.45.07-1.91,1.3-3.02,3.4-2.98,10.2.18,20.36-.39,30.48-1.68,5.4-.69,10.71-1.75,15.71-4.02,2.81-1.27,5.42-2.87,7.09-5.55,1.07-1.71,2.2-3.49,1.02-5.69-.38-.7-.23-1.92-.74-2.26-1.16-.75-2.54-1.36-3.9-1.56-4.55-.7-9.05.06-13.4,1.29-3.1.87-6.09,2.17-9.05,3.47-3.86,1.7-7.64,1.73-11.47.04-8.28-3.66-16.95-5.97-25.83-7.51-5.1-.89-10.24-1.12-15.3.23-7.61,2.02-13.53,6.69-17.46,13.23-4.02,6.68-9.87,11.08-15.9,15.48-5.11,3.73-10.26,7.41-15.4,11.11-1.83,1.32-3.22,1.28-4.37-.16-1.28-1.61-1.08-3.78.59-5.06,2.6-2,5.26-3.93,7.91-5.88,5.56-4.09,11.13-8.15,16.66-12.28.81-.61,1.54-1.42,2.08-2.28,2.51-4,5.08-7.93,8.57-11.19,3.27-3.06,6.94-5.51,11.14-7.06,5.25-1.95,10.54-3.82,15.86-5.59,6.17-2.05,12.54-3.15,19.03-3.59.66-.05,1.33.05,1.43-.94.78-7.35,1.5-14.7.05-22.04-.54-2.73-1.44-5.33-3.53-7.34-.83-.8-1.64-1.03-2.91-.79-11.68,2.22-22.4.57-31.05-8.4-3.56-3.7-5.3-8.41-6.69-13.25-1.72-6.01-2.11-12.17-2.1-18.38,0-2.48,3.13-4.22,5.14-2.73,4.03,3,8.74,3.83,13.46,4.74,4.21.8,8.43,1.49,12.3,3.5,5.77,2.99,9.76,7.48,11.85,13.65,1.43,4.21,2.69,8.49,2.35,12.97-.13,1.73.4,2.65,1.57,3.81,1.68,1.68,2.99,3.8,4.43,5.67ZM134.19,24.51c-1.51.44-2.78.85-4.06,1.16-4.35,1.04-8.73,1.95-13.05,3.1-7.22,1.92-11.8,6.62-13.5,13.86-.7,2.98-.74,6.12-1.1,9.18-.14,1.22.44,1.56,1.56,1.57,5.12.06,10.18-.32,15.12-1.7,4.01-1.12,7.21-3.43,9.43-6.96,3.85-6.1,5.11-12.93,5.6-20.21ZM44.42,21.42c.57,7.61,1.87,14.9,6.4,21.21,1.46,2.04,3.39,3.62,5.69,4.65,5.88,2.64,12.15,2.88,18.46,2.82.96-.01,1.22-.51,1.16-1.36-.18-2.37-.16-4.77-.56-7.1-1.42-8.23-5.85-13.96-14.14-16.14-5.56-1.47-11.18-2.69-17.01-4.08ZM76.31,94.33c8.29,1.7,16.24,4.38,24.01,7.65.37.16.93.08,1.34-.06,2.9-1.05,5.8-2.12,8.68-3.25.52-.21.92-.74,1.58-1.3-11.9-3.97-23.62-5.05-35.61-3.04ZM154.33,84.83c-3.99-.45-16.34,8.9-18.79,13.86.72.6,1.44,1.21,2.28,1.92,5.46-5.21,10.87-10.39,16.51-15.78ZM123.25,95.91c1.54,0,3.09.06,4.63-.03.58-.03,1.27-.29,1.67-.69,1.93-1.96,3.77-4,5.66-6,.56-.6,1.17-1.15,1.75-1.72-.08-.1-.17-.2-.25-.3-5.43,1.35-9.43,5.01-13.46,8.74Z"/>
</svg>