<?xml version="1.0" encoding="UTF-8"?><svg id="uuid-ca686a86-0e77-418b-9319-4628d0ad5528" xmlns="http://www.w3.org/2000/svg" width="478.75" height="478.75" viewBox="0 0 478.75 478.75"><defs><style>.uuid-00538dc2-e195-4bf5-8d08-f6aa19f8ae7f{fill:#fff;stroke-width:0px;}</style></defs><path class="uuid-00538dc2-e195-4bf5-8d08-f6aa19f8ae7f" d="M478.22,358.32c-2.35,5.43-3.51,11.31-6.71,16.46-4.88,7.84-11.26,14-19.27,18.45-41.11,22.88-82.27,45.69-123.39,68.57-23.66,13.16-48.03,14.64-73.39,5.28-51.58-19.02-103.26-37.76-154.86-56.71-3.21-1.18-4.52-1.19-4.89,2.75-1.42,15.3-14.18,27.51-29.72,28.07-11.64.42-23.32.41-34.97.02-16.91-.56-30.37-14.57-30.4-31.52-.1-49.74-.1-99.49,0-149.23.04-17.36,13.66-31.15,31.28-31.68,11.03-.33,22.08-.36,33.11,0,17.84.59,30.05,13.43,31.29,32.73.2,3.19.82,3.84,3.97,3.24,45.03-8.51,88.84-4.61,131.15,13.44,7.54,3.22,14.84,7.02,21.67,11.61,2.69,1.81,5.45,2.45,8.69,2.44,26.89-.1,53.79-.1,80.68-.04,13.29.03,24.55,4.57,32.83,15.36,5.7,7.44,7.73,16.06,7.82,25.64,13.27-5.23,26.32-10.34,39.35-15.53,13.73-5.47,27.17-5.94,39.9,2.61,8.36,5.61,13.54,13.45,15.02,23.54.09.62.13,1.22.86,1.44v13.06ZM96.39,336.88c0,15.08.07,30.16-.06,45.24-.02,2.88.73,4.22,3.64,5.28,54.86,19.94,109.67,40.06,164.49,60.1,18.2,6.65,35.96,5.58,52.94-3.8,41.73-23.06,83.36-46.29,125.03-69.46,6.05-3.36,10.37-8.31,12.9-14.75,4.63-11.8-.58-22.26-12.09-24.16-4.95-.82-9.47,1.02-13.94,2.75-27.51,10.63-54.59,22.35-82.51,31.89-11.45,3.91-23.37,6.12-35.45,6.95-24.06,1.64-48.17.49-72.26.93-3.93.07-5.71-.64-5.21-5,.42-3.68.43-7.49,0-11.17-.54-4.62,1.16-5.5,5.57-5.54,25.93-.27,51.91,1.53,77.77-1.53,12.18-1.44,24.04-4.42,35.22-9.52,7.77-3.54,11.09-12.6,8.14-20.44-2.64-7.01-8.86-10.7-18.34-10.71-28.61-.03-57.21-.07-85.82.06-4.05.02-7.41-.75-10.73-3.24-3.82-2.87-8.07-5.21-12.29-7.48-20.84-11.24-43.2-17.3-66.69-19.82-22.28-2.39-44.31-1.16-66.24,3.08-2.95.57-4.26,1.65-4.2,5.13.27,15.08.11,30.16.11,45.24ZM21.99,334.86c0,24.23-.02,48.47.01,72.7.01,8.15,4.13,12.26,12.32,12.32,9.01.07,18.02.03,27.03.01,9.38-.02,13.39-3.86,13.4-13.18.04-47.85.05-95.69,0-143.54,0-9.06-4.09-13.02-13.07-13.06-8.7-.04-17.4-.02-26.1,0-9.64.02-13.59,3.92-13.59,13.45,0,23.77,0,47.54,0,71.31Z"/><path class="uuid-00538dc2-e195-4bf5-8d08-f6aa19f8ae7f" d="M468.01,90.79c-.36,24.73-9.08,45.3-26.09,62.34-36.25,36.31-72.56,72.55-108.73,108.94-2.73,2.75-4.02,2.72-6.75-.03-35.93-36.18-71.96-72.27-108.07-108.29-19.51-19.46-28.89-42.88-26.31-70.28,3.41-36.37,28.79-65.6,63.53-74.89,26.4-7.06,49.99-1.15,70.79,16.25,2.61,2.18,4.08,2.34,6.79.01,36.69-31.45,83.82-20.7,110.71,7.31,15.86,16.51,23.61,36.42,24.14,58.63ZM213.18,96.28c.16,12.2,5.66,27.35,17.81,39.6,32.09,32.33,64.38,64.46,96.52,96.75,1.97,1.98,2.95,1.64,4.72-.14,31.94-32.05,64.16-63.81,95.85-96.1,23.26-23.7,24.63-59.25,4.11-85.19-16.27-20.57-44.8-29.17-67.97-20.33-13.57,5.17-23.47,14.86-31.56,26.57-1.95,2.82-3.4,3.99-5.61.18-1.47-2.53-3.49-4.75-5.37-7.02-11.98-14.41-26.85-23.7-46.05-23.34-34.61.66-62.34,29.42-62.46,69.01Z"/></svg>