<?xml version="1.0" encoding="UTF-8"?><svg id="uuid-d4032515-fd53-4b28-9878-1a6a89f983a2" xmlns="http://www.w3.org/2000/svg" width="478.75" height="478.75" viewBox="0 0 478.75 478.75"><defs><style>.uuid-a786b1c8-6c1a-407f-9322-8fe1c2c0a04f{fill:#fff;stroke-width:0px;}</style></defs><path class="uuid-a786b1c8-6c1a-407f-9322-8fe1c2c0a04f" d="M437.69,246.75c-2.18,3.97-3.4,8.42-6.62,11.88-4.98,5.34-10.97,8.85-18.21,8.89-34.3.19-68.61.2-102.92.04-9.6-.04-18.21-8.78-18.48-18.38-.26-9.28-.05-18.57-.11-27.85-.01-2.4,1.09-4.19,2.68-5.77,12.86-12.86,25.74-25.69,38.58-38.57,2.36-2.37,5.12-3.14,8.09-1.85,3.01,1.31,4.09,4,4.07,7.27-.06,9.54.1,19.09-.09,28.63-.06,2.78.76,3.35,3.41,3.33,20.12-.12,40.24.2,60.36-.15,15.1-.26,26.55,9.35,28.66,21.35.03.15.39.24.6.37v10.84ZM331.08,197.26c-9.04,9.13-17.26,17.44-25.49,25.72-1.05,1.06-.86,2.35-.86,3.62,0,5.93,0,11.86,0,17.8,0,7.73,2.13,9.89,9.77,9.89,31.21,0,62.42.01,93.63-.02,1.92,0,3.87-.14,5.76-.49,6.55-1.2,11.09-7.61,10.19-14.23-1.02-7.5-6.11-11.62-14.66-11.64-22.7-.04-45.4-.01-68.1-.02-8.04,0-10.23-2.22-10.24-10.34,0-6.37,0-12.75,0-20.3Z"/><path class="uuid-a786b1c8-6c1a-407f-9322-8fe1c2c0a04f" d="M437.69,102.76c-1.97,5.18-2.96,10.68-5.45,15.72-9.99,20.27-33.07,32.43-55.4,29.02-23.33-3.57-42.01-22.2-45.11-45-4.09-30.1,17.05-57.54,46.86-60.82,28.31-3.11,53.68,16.38,58.4,44.84.05.28.45.5.69.75v15.48ZM344.75,94.69c0,21.79,17.96,39.81,39.7,39.82,21.71,0,39.81-18.03,39.88-39.74.07-21.55-18.21-39.88-39.8-39.92-21.61-.04-39.77,18.14-39.77,39.84Z"/><path class="uuid-a786b1c8-6c1a-407f-9322-8fe1c2c0a04f" d="M222.75,223.41c7.96-.03,14.4,2.29,19.74,7.15,4.67,4.25,9.08,8.79,13.55,13.25,21.45,21.42,42.91,42.82,64.3,64.31,13.15,13.21,14.5,31.28,3.57,45.44-2.96,3.84-6.74,6.73-10.96,9.02-30.58,16.59-61.1,33.3-91.82,49.65-14.8,7.88-32.36,2.14-40.05-12.43-8.35-15.81-3.47-32.86,12.09-41.28,19.3-10.45,38.7-20.74,58.14-30.94,2.91-1.53,2.97-2.32.68-4.58-16.42-16.23-32.79-32.51-49.01-48.95-12.91-13.1-12.11-32.41,1.63-43.96,5.41-4.55,11.74-6.8,18.14-6.68ZM190.57,383.69c.1,2.5.13,4.13.67,5.78,3.8,11.57,14.3,15.85,25.13,9.99,29.61-15.99,59.17-32.06,88.76-48.1,14.62-7.93,16.79-22.56,5.06-34.31-15.86-15.88-31.75-31.75-47.63-47.62-8.94-8.94-17.9-17.86-26.82-26.83-4.76-4.79-10.37-6.66-16.88-4.64-11.45,3.55-15.02,17.24-6.68,26.08,7.17,7.6,14.71,14.84,22.1,22.23,11.49,11.5,23,22.98,34.48,34.49,5.67,5.69,4.98,10.07-2.15,13.91-.23.12-.46.24-.69.36-21.88,11.64-43.75,23.31-65.65,34.91-5.91,3.13-9.56,7.65-9.71,13.74Z"/><path class="uuid-a786b1c8-6c1a-407f-9322-8fe1c2c0a04f" d="M298.87,177.23c-8.77.14-15.95-3.67-22.11-9.83-11.94-11.95-23.95-23.83-35.78-35.9-2.17-2.21-3.22-2.46-5.56-.1-18.49,18.72-37.13,37.28-55.75,55.86-9.53,9.51-20.62,12.78-33.45,7.68-18.37-7.3-24.14-30.85-11.34-45.89,1.75-2.06,3.7-3.95,5.61-5.87,24.25-24.26,48.5-48.52,72.77-72.77,9.94-9.93,21.62-13.48,35.29-9.37,5.55,1.67,10.15,4.97,14.19,9,18.73,18.66,37.49,37.29,56.08,56.08,15.4,15.56,11.71,38.92-7.5,48.44-3.86,1.91-8.01,2.7-12.45,2.66ZM314.79,147.97c.12-5.14-2.27-9.06-5.79-12.57-18.28-18.22-36.5-36.49-54.75-54.73-10.6-10.6-21.58-10.57-32.27.12-24.55,24.54-49.09,49.08-73.63,73.63-1.27,1.27-2.55,2.57-3.64,4-5.39,7.09-3.66,17.5,3.68,22.48,6.67,4.53,15.23,3.36,21.7-3.09,20.55-20.5,41.07-41.05,61.61-61.56,5-4.99,8.03-4.98,13.07.05,7.67,7.65,15.33,15.33,22.99,22.99,6.75,6.75,13.39,13.62,20.32,20.18,4.91,4.65,10.82,5.83,17.14,3.05,6.25-2.76,9.39-7.72,9.56-14.54Z"/><path class="uuid-a786b1c8-6c1a-407f-9322-8fe1c2c0a04f" d="M71.54,437.21c-13.94.67-22.71-5.79-27.75-17.03-4.96-11.05-3-21.62,4.83-30.97,1.16-1.38,2.41-2.69,3.69-3.96,37.77-37.78,75.54-75.55,113.31-113.32,6.13-6.13,8.59-6.12,14.76.05,9.22,9.21,18.44,18.42,27.64,27.65,5.13,5.15,5.15,7.96.07,13.05-38.41,38.41-76.82,76.82-115.23,115.23-6.16,6.15-13.1,10.43-21.32,9.3ZM70.55,424.37c4.79.07,8.71-1.88,12.03-5.21,37.01-37.01,74.01-74.02,111.06-110.99,1.52-1.52,1.65-2.32.03-3.88-6.03-5.82-12-11.7-17.75-17.79-2.23-2.36-3.38-2.62-5.87-.11-36.08,36.3-72.29,72.47-108.45,108.68-1.18,1.18-2.34,2.4-3.37,3.71-4.04,5.15-4.61,10.88-1.87,16.65,2.76,5.81,7.69,8.79,14.19,8.94Z"/></svg>