<?xml version="1.0" encoding="UTF-8"?><svg id="a" xmlns="http://www.w3.org/2000/svg" width="180.37" height="180.37" viewBox="0 0 180.37 180.37"><defs><style>.b{stroke-width:0px;}</style></defs><path class="b" d="M12.53,140.77h8.97v-18.42h27.57v-27.62h-8.85v-27.32h8.92c3.79-20.59,15.85-32.94,36.56-36.82V12.5h27.21v9.1h-18.09v9.01c20.47,3.83,32.53,16.07,36.4,36.71h8.96v27.36h-8.84v27.62h27.43v18.33h9.07v27.24H12.54c0-8.9,0-17.85,0-27.1ZM58.1,149.93H21.74v8.74h136.93v-8.84h-36.31v-9.16h27.23v-8.96H30.78v9.07h27.33c0,3.09,0,5.9,0,9.15ZM58.76,67.15h62.89c-2.31-15.75-15.84-27.51-31.46-27.5-15.62,0-29.27,11.89-31.43,27.5ZM49.37,85.54h81.61v-8.76H49.37v8.76ZM67.18,122.24v-27.36h-8.8v27.36h8.8ZM76.76,94.81v27.33h8.75v-27.33h-8.75ZM94.88,94.82v27.33h8.75v-27.33h-8.75ZM113.24,94.81v27.33h8.75v-27.33h-8.75Z"/></svg>