<?xml version="1.0" encoding="UTF-8"?><svg id="a" xmlns="http://www.w3.org/2000/svg" width="180.37" height="180.37" viewBox="0 0 180.37 180.37"><defs><style>.b{stroke-width:0px;}</style></defs><path class="b" d="M22.09,61.14c0-7.11-.02-14.23,0-21.34.02-5.56,1.64-7.32,7.29-7.43,8.37-.16,16.6-1.17,24.67-3.39,11.5-3.16,21.59-8.89,30.33-16.99,4.75-4.39,6.95-4.41,11.71.02,12.52,11.66,27.49,17.84,44.36,19.65,3.88.42,7.79.46,11.68.74,4.27.31,6.21,2.21,6.21,6.4.01,14.4.36,28.82-.25,43.19-.73,17.32-4.5,34.01-13.37,49.2-9.58,16.41-23.71,27.61-40.79,35.37-3.63,1.65-7.3,3.21-11.04,4.57-1.38.5-3.19.76-4.51.3-15.36-5.43-29.53-12.89-41.05-24.75-12.11-12.46-18.99-27.56-22.47-44.37-2.82-13.59-3.3-27.36-2.78-41.17ZM146.74,43.65c-21.14-.84-40.27-7.25-56.5-21.49-16.21,14.16-35.32,20.62-56.59,21.48-.1.91-.26,1.58-.25,2.26.27,14.48.12,28.98.98,43.43.74,12.38,4.15,24.24,10.33,35.14,9.37,16.55,23.88,26.88,41.12,33.94,2.98,1.22,5.49,1.28,8.59.04,30.29-12.16,47.5-34.23,51.42-66.72,1.88-15.58,1.44-31.18,1.18-46.79,0-.35-.14-.68-.28-1.29Z"/><path class="b" d="M82.28,98.06c9.06-9.07,17.83-17.84,26.6-26.62,1.71-1.71,3.52-3.07,6.17-2.46,3.75.87,5.61,4.68,3.8,8.04-.57,1.05-1.4,1.98-2.24,2.83-9.62,9.65-19.25,19.29-28.89,28.91-3.91,3.91-6.8,3.93-10.66.08-4.55-4.53-9.2-8.97-13.56-13.69-1.3-1.4-2.48-3.6-2.45-5.4.09-4.43,5.19-6.56,8.85-3.97.84.6,1.59,1.34,2.32,2.08,3.3,3.32,6.58,6.66,10.06,10.2Z"/></svg>